<?xml version="1.0" encoding="utf-8"?>
<!-- Generator: Adobe Illustrator 16.0.0, SVG Export Plug-In . SVG Version: 6.00 Build 0)  -->
<!DOCTYPE svg PUBLIC "-//W3C//DTD SVG 1.1//EN" "http://www.w3.org/Graphics/SVG/1.1/DTD/svg11.dtd">
<svg version="1.1" id="Capa_1" xmlns="http://www.w3.org/2000/svg" xmlns:xlink="http://www.w3.org/1999/xlink" x="0px" y="0px"
	 width="566.93px" height="170.08px" viewBox="0 0 566.93 170.08" enable-background="new 0 0 566.93 170.08" xml:space="preserve">
<defs>
  <style type="text/css">
   	<![CDATA[
	    @font-face {
	    	font-family: 'Quicksand-Bold';
	    	src: url('../fonts/quicksand_bold.eot');
	    	src: url('../fonts/quicksand_bold.ttf') format('truetype'),
	       		url('../fonts/quicksand_bold.svg#Quicksand-Bold') format('svg');
	    	font-weight: normal;
	    	font-style: normal;
		}
   	]]>
 </style>
</defs>
<g>
	<g>
		<g>
			<path fill="#000000" d="M33,113.09c26.501,0.689,53.365,0.44,79.72-2.555c12.027-1.366,25.347-2.588,34.351-11.444
				c6.412-6.308,11.784-13.665,17.55-20.547c2.524-3.013,5.127-5.967,7.97-8.685c1.177-1.125,2.438-2.189,3.804-3.08
				c0.505-0.33,1.045-0.59,1.591-0.842c-1.59,0.732-1.751-0.769-0.405,0.79c1.987,2.3,2.071,6.36,2.372,9.187
				c0.614,5.782,0.885,11.599,0.996,17.411c0.115,5.988,0.029,12.04-0.532,18.009c2,0,4,0,6,0
				c0.388-11.719,1.618-23.625,4.335-35.037c1.146-4.809,3.149-14.373,8.65-16.244c2.099-0.715,5.356,1.689,6.65,3.067
				c2.366,2.52,3.18,6.26,3.802,9.54c0.904,4.762,1.08,9.677,1.262,14.507c0.222,5.879-0.469,12.114,1.053,17.848
				c1.835,6.917,8.411,8.835,14.822,8.841c10.043,0.009,19.875-4.893,28.489-9.533c11.464-6.177,21.732-14.228,30.966-23.382
				c5.823-5.772,11.681-12.778,14.889-20.441c-1.964,0.074-3.929,0.149-5.893,0.223c4.047,7.344,6.059,16.023,6.671,24.313
				c0.938,12.697-3.655,22.433-11.416,32.039c-6.61,8.181-14.357,15.604-22.507,22.237c-5.628,4.58-19.403,9.92-24.499,1.877
				c-1.849-2.918,0.079-6.673,1.744-9.115c4.047-5.938,10.806-10.004,17.467-12.299c10.924-3.763,22.798-2.702,34.071-4.527
				c8.904-1.442,16.329-6.684,23.23-12.204c10.329-8.264,19.362-18.326,26.689-29.32c1.235-1.853,2.547-3.604,4.01-5.281
				c0.555-0.61,1.144-1.185,1.769-1.724c0.275-0.219,0.551-0.438,0.827-0.656c1.507-0.688,1.685-0.895,0.534-0.619
				c1.871,1.259,2.688,3.839,3.236,5.895c0.863,3.243,0.359,6.755,0.314,10.066c-0.135,9.864-0.107,19.732-0.083,29.596
				c0.003,1.214,5.96,1.254,6,0c0.203-6.315,0.797-12.633,1.592-18.898c1.19-9.375,2.567-20.57,8.192-28.472
				c0.912-1.281,2.176-2.599,3.695-3.124c1.331-0.46,3.864,3.469,4.386,4.35c3.105,5.247,3.355,12.412,3.708,18.319
				c0.414,6.915,0.256,13.854,0.327,20.777c0.014,1.326-0.72,6.452,0.45,7.687c1.091,1.15,4.606,0.815,5.785,0
				c1.308-0.905,1.022-7.987,1.182-9.388c0.762-6.674,1.79-13.33,3.428-19.848c1.406-5.594,3.312-12.202,7.918-16.041
				c0.938-0.782,1.694-0.979,2.635-1.052c0.884-0.068,2.271-0.191,0.437-0.126c-0.639,0.022,1.34,1,1.911,1.553
				c1.784,1.728,2.582,4.271,3.229,6.591c1.332,4.783,1.207,9.998,1.265,14.92c0.065,5.658-0.762,11.511,2.363,16.514
				c4.792,7.671,17.385,7.81,25.223,7.732c22.677-0.224,45.351-0.963,68.014-1.738c8.604-0.295,17.207-0.604,25.81-0.946
				c4.149-0.165,0.647-1.709-1.596-1.619c-14.119,0.562-28.243,1.04-42.367,1.478c-11.806,0.365-23.613,0.685-35.422,0.922
				c-10.282,0.206-25.519,3.012-33.23-5.427c-8.321-9.107,5.082-42.372-15.504-41.649c-0.954,0.034-1.871,0.128-2.802,0.333
				c1.466-0.321,1.281-0.334-0.671-0.035c-2.288,0.351-4.205,1.255-5.904,2.829c-4.168,3.86-5.926,10.483-7.307,15.762
				c-1.641,6.273-2.579,12.732-3.348,19.162c-0.178,1.492-0.233,9.064-1.047,9.627c1.928,0,3.856,0,5.785,0
				c-1.229-1.296-0.258-9.764-0.265-11.896c-0.025-7.751,0.018-15.522-0.928-23.229c-0.644-5.25-1.86-11.652-6.232-15.151
				c-3.109-2.489-8.855-2.838-12.44-1.256c-8.745,3.861-10.492,18.668-11.848,26.757c-1.357,8.101-2.158,16.371-2.423,24.583
				c2,0,4,0,6,0c-0.03-11.98-0.351-24.037,0.268-36.004c0.223-4.323-2.15-10.446-6.868-11.263
				c-10.037-1.738-14.542,8.077-19.577,14.958c-7.571,10.348-16.913,19.614-27.222,27.227c-3.797,2.804-7.975,5.514-12.488,7.011
				c-5.314,1.763-11.273,1.725-16.808,2.104c-11.011,0.754-22.197,2.115-31.773,8.021c-5.25,3.238-15.029,11.315-11.127,18.582
				c3.66,6.816,17.251,5.494,23.244,4.19c11.536-2.51,20.085-11.913,28.017-20.101c9.482-9.787,17.714-20.103,18.924-34.069
				c0.906-10.461-1.782-22.162-6.862-31.378c-0.612-1.112-5.401-0.949-5.893,0.223c-3.159,7.547-9.057,14.22-14.674,19.995
				c-9.671,9.942-21.024,18.109-33.281,24.532c-7.229,3.787-21.751,12.128-27.935,2.926c-2.732-4.067-2.104-9.908-2.173-14.507
				c-0.088-5.919-0.271-11.851-0.959-17.733c-0.68-5.81-2.076-12.364-7.581-15.429c-4.084-2.273-11.243-2.918-15.415-0.643
				c-4.888,2.666-6.764,9.957-8.105,14.857c-2.08,7.598-3.078,15.51-3.856,23.333c-0.446,4.485-0.79,8.996-0.938,13.503
				c-0.038,1.156,5.877,1.309,6,0c0.764-8.133,0.675-16.379,0.333-24.528c-0.241-5.73-0.32-11.86-1.885-17.416
				c-0.587-2.083-1.854-4.283-4.11-4.825c-5.607-1.346-9.936,1.149-13.949,4.848c-6.426,5.923-11.65,13.204-17.208,19.911
				c-4.314,5.205-8.984,11.666-15.282,14.573c-5.892,2.719-12.75,3.601-19.109,4.496c-17.341,2.444-35.01,2.893-52.498,3.133
				c-9.899,0.137-19.811,0.143-29.708-0.115C29.507,111.319,29.536,113,33,113.09L33,113.09z"/>
		</g>
	</g>
</g>
<text transform="matrix(1.1387 0 0 1 166.7642 36.9336)" fill="#000000" style="font-family: 'Quicksand-Bold'" font-size="15">NATALIA SANJUÁN MOLINERO</text>
</svg>
